<svg id="图层_1" data-name="图层 1" xmlns="http://www.w3.org/2000/svg" viewBox="0 0 256.81 117.77"><defs><style>.cls-1{fill:#de820f;}.cls-2{fill:#0b996f;}.cls-3{fill:#fff;}</style></defs><title>logo</title><rect class="cls-1" y="83.42" width="256.81" height="34.35"/><path class="cls-2" d="M35.26,27.35a8.74,8.74,0,1,1-8.73-8.74A8.73,8.73,0,0,1,35.26,27.35Z" transform="translate(-17.79 -16.86)"/><path class="cls-2" d="M94.3,27.35a8.74,8.74,0,1,1-8.73-8.74A8.73,8.73,0,0,1,94.3,27.35Z" transform="translate(-17.79 -16.86)"/><rect class="cls-2" x="30.97" y="0.01" width="13.06" height="26.83"/><rect class="cls-2" y="26.84" width="70.39" height="7.6"/><rect class="cls-2" x="4.62" y="44.17" width="52" height="9.73"/><path class="cls-2" d="M92.81,43.7V81.64s-1,4.49-4.63,5.67-69.35,0-69.35,0V80H80.52V43.7Z" transform="translate(-17.79 -16.86)"/><path class="cls-2" d="M124.64,27.35a8.74,8.74,0,1,1-8.73-8.74A8.73,8.73,0,0,1,124.64,27.35Z" transform="translate(-17.79 -16.86)"/><path class="cls-2" d="M183.68,27.35A8.74,8.74,0,1,1,175,18.61,8.73,8.73,0,0,1,183.68,27.35Z" transform="translate(-17.79 -16.86)"/><rect class="cls-2" x="120.35" y="0.01" width="13.06" height="26.83"/><rect class="cls-2" x="89.38" y="26.84" width="70.39" height="7.6"/><rect class="cls-2" x="93.99" y="44.17" width="52" height="9.73"/><path class="cls-2" d="M182.19,43.7V81.64s-1,4.49-4.63,5.67-69.35,0-69.35,0V80H169.9V43.7Z" transform="translate(-17.79 -16.86)"/><rect class="cls-2" x="179.66" y="1.75" width="12.74" height="69.22"/><path class="cls-2" d="M215.6,16.87h53.71s3.37-.37,3.94,4.69,0,66.27,0,66.27h-9V27.35H215.6Z" transform="translate(-17.79 -16.86)"/><polygon class="cls-2" points="210.74 15.92 192.4 65.09 201.57 65.09 218.97 15.92 210.74 15.92"/><polygon class="cls-2" points="192.4 15.92 201.09 15.92 216.11 56.66 216.11 65.09 210.71 63.93 192.4 22.82 192.4 15.92"/><polygon class="cls-2" points="227.47 15.92 245.81 65.09 236.64 65.09 219.24 15.92 227.47 15.92"/><polygon class="cls-2" points="245.81 15.92 237.12 15.92 222.11 56.66 222.11 65.09 227.5 63.93 245.81 22.82 245.81 15.92"/><path class="cls-3" d="M42.24,126.93v-2.16a8.1,8.1,0,0,1-2.65,1.91,7.59,7.59,0,0,1-3.11.64A8.57,8.57,0,0,1,30,124.68a9.1,9.1,0,0,1-2.56-6.6,9.76,9.76,0,0,1,.64-3.51A8.91,8.91,0,0,1,30,111.65a8.45,8.45,0,0,1,2.84-2.05,8.77,8.77,0,0,1,3.5-.66,8,8,0,0,1,3.24.64,8.38,8.38,0,0,1,2.74,1.92v-7.79h3.09v23.22Zm-11.56-8.88a6.21,6.21,0,0,0,1.73,4.46,5.63,5.63,0,0,0,4.22,1.8,5.45,5.45,0,0,0,4-1.81,5.91,5.91,0,0,0,1.74-4.23,6.27,6.27,0,0,0-1.73-4.43,5.43,5.43,0,0,0-4.1-1.84,5.62,5.62,0,0,0-4.16,1.75A5.91,5.91,0,0,0,30.68,118.05Z" transform="translate(-17.79 -16.86)"/><path class="cls-3" d="M63.48,126.93v-2.16a8.1,8.1,0,0,1-2.65,1.91,7.59,7.59,0,0,1-3.11.64,8.57,8.57,0,0,1-6.44-2.64,9.1,9.1,0,0,1-2.56-6.6,9.76,9.76,0,0,1,.64-3.51,8.91,8.91,0,0,1,1.83-2.92A8.52,8.52,0,0,1,54,109.6a8.86,8.86,0,0,1,3.51-.66,7.88,7.88,0,0,1,5.95,2.56v-2.11h3.13v17.54Zm-11.56-8.88a6.21,6.21,0,0,0,1.73,4.46,5.63,5.63,0,0,0,4.22,1.8,5.45,5.45,0,0,0,4-1.81,5.91,5.91,0,0,0,1.74-4.23,6.27,6.27,0,0,0-1.73-4.43,5.43,5.43,0,0,0-4.1-1.84,5.62,5.62,0,0,0-4.16,1.75A5.91,5.91,0,0,0,51.92,118.05Z" transform="translate(-17.79 -16.86)"/><path class="cls-3" d="M73.93,126.93H70.84V109.39h3v2a5.76,5.76,0,0,1,4.79-2.28,6.58,6.58,0,0,1,5.18,2,8.47,8.47,0,0,1,1.8,5.81v10H82.47v-9.32a6.93,6.93,0,0,0-1-4.14,4.34,4.34,0,0,0-6.49.25c-.69,1-1,2.8-1,5.23Z" transform="translate(-17.79 -16.86)"/><path class="cls-3" d="M90.09,128.33h3.3a4.89,4.89,0,0,0,1.88,1.87,5.4,5.4,0,0,0,2.66.65,5.68,5.68,0,0,0,4.21-1.6,5.78,5.78,0,0,0,1.59-4.25v-.23a8.2,8.2,0,0,1-2.65,1.91,7.61,7.61,0,0,1-3.12.64,8.55,8.55,0,0,1-6.43-2.64,9.06,9.06,0,0,1-2.56-6.6,9.55,9.55,0,0,1,.64-3.51,8.75,8.75,0,0,1,1.83-2.92,8.52,8.52,0,0,1,2.83-2.05,8.82,8.82,0,0,1,3.51-.66,8.11,8.11,0,0,1,3.24.64,8.48,8.48,0,0,1,2.74,1.92v-2.11h3.09V124a10.28,10.28,0,0,1-2.33,7.17,8.15,8.15,0,0,1-6.4,2.59,8.71,8.71,0,0,1-5-1.42A7.78,7.78,0,0,1,90.09,128.33Zm2.08-10.28a6.16,6.16,0,0,0,1.73,4.46,5.61,5.61,0,0,0,4.22,1.8,5.41,5.41,0,0,0,4-1.81,5.91,5.91,0,0,0,1.74-4.23,6.26,6.26,0,0,0-1.72-4.43,5.43,5.43,0,0,0-4.1-1.84,5.61,5.61,0,0,0-4.16,1.75A5.88,5.88,0,0,0,92.17,118.05Z" transform="translate(-17.79 -16.86)"/><path class="cls-3" d="M125,126.93v-2.16a8.2,8.2,0,0,1-2.65,1.91,7.59,7.59,0,0,1-3.11.64,8.56,8.56,0,0,1-6.44-2.64,9.06,9.06,0,0,1-2.56-6.6,9.55,9.55,0,0,1,.64-3.51,9.09,9.09,0,0,1,4.66-5,8.82,8.82,0,0,1,3.51-.66,8.11,8.11,0,0,1,3.24.64A8.48,8.48,0,0,1,125,111.5v-7.79h3.09v23.22Zm-11.56-8.88a6.16,6.16,0,0,0,1.73,4.46,5.61,5.61,0,0,0,4.22,1.8,5.41,5.41,0,0,0,4-1.81,5.91,5.91,0,0,0,1.74-4.23,6.26,6.26,0,0,0-1.72-4.43,5.43,5.43,0,0,0-4.1-1.84,5.61,5.61,0,0,0-4.16,1.75A5.88,5.88,0,0,0,113.41,118.05Z" transform="translate(-17.79 -16.86)"/><path class="cls-3" d="M146.21,126.93v-2.16a8.2,8.2,0,0,1-2.65,1.91,7.59,7.59,0,0,1-3.11.64,8.56,8.56,0,0,1-6.44-2.64,9.06,9.06,0,0,1-2.56-6.6,9.55,9.55,0,0,1,.64-3.51,8.89,8.89,0,0,1,1.82-2.92,8.65,8.65,0,0,1,2.84-2.05,8.82,8.82,0,0,1,3.51-.66,8.09,8.09,0,0,1,3.25.64,8.23,8.23,0,0,1,2.7,1.92v-2.11h3.12v17.54Zm-11.56-8.88a6.16,6.16,0,0,0,1.73,4.46,5.61,5.61,0,0,0,4.22,1.8,5.41,5.41,0,0,0,4-1.81,5.91,5.91,0,0,0,1.74-4.23,6.26,6.26,0,0,0-1.72-4.43,5.43,5.43,0,0,0-4.1-1.84,5.61,5.61,0,0,0-4.16,1.75A5.88,5.88,0,0,0,134.65,118.05Z" transform="translate(-17.79 -16.86)"/><path class="cls-3" d="M156.66,126.93h-3.1V109.39h3v2a6.31,6.31,0,0,1,2.13-1.73,6.11,6.11,0,0,1,2.66-.55,6.57,6.57,0,0,1,5.18,2,8.43,8.43,0,0,1,1.81,5.81v10H165.2v-9.32a6.86,6.86,0,0,0-1-4.14,4.34,4.34,0,0,0-6.49.25c-.69,1-1,2.8-1,5.23Z" transform="translate(-17.79 -16.86)"/><path class="cls-3" d="M172.82,128.33h3.29A4.92,4.92,0,0,0,178,130.2a5.37,5.37,0,0,0,2.66.65,5.65,5.65,0,0,0,4.2-1.6,5.78,5.78,0,0,0,1.59-4.25v-.23a8.16,8.16,0,0,1-2.64,1.91,7.68,7.68,0,0,1-3.12.64,8.54,8.54,0,0,1-6.43-2.64,9.06,9.06,0,0,1-2.57-6.6,9.56,9.56,0,0,1,.65-3.51,8.72,8.72,0,0,1,1.82-2.92A8.55,8.55,0,0,1,177,109.6a8.77,8.77,0,0,1,3.5-.66,8,8,0,0,1,3.24.64,8.52,8.52,0,0,1,2.75,1.92v-2.11h3.09V124a10.33,10.33,0,0,1-2.33,7.17,8.16,8.16,0,0,1-6.4,2.59,8.77,8.77,0,0,1-5-1.42A7.77,7.77,0,0,1,172.82,128.33Zm2.08-10.28a6.2,6.2,0,0,0,1.72,4.46,5.63,5.63,0,0,0,4.23,1.8,5.41,5.41,0,0,0,4-1.81,5.91,5.91,0,0,0,1.74-4.23,6.23,6.23,0,0,0-1.73-4.43,5.41,5.41,0,0,0-4.1-1.84,5.62,5.62,0,0,0-4.16,1.75A5.91,5.91,0,0,0,174.9,118.05Z" transform="translate(-17.79 -16.86)"/><path class="cls-3" d="M198.12,126.93H195V123h3.12Z" transform="translate(-17.79 -16.86)"/><path class="cls-3" d="M219.91,121a9.86,9.86,0,0,1-3.21,4.8,8.16,8.16,0,0,1-5.17,1.64,8.68,8.68,0,0,1-3.48-.68,8.57,8.57,0,0,1-2.83-2,9.58,9.58,0,0,1-1.88-3,9.56,9.56,0,0,1-.06-6.93,9.49,9.49,0,0,1,4.8-5.13,8.53,8.53,0,0,1,3.55-.75,8.16,8.16,0,0,1,5.12,1.66,9.45,9.45,0,0,1,3.16,4.69h-3.39a5.75,5.75,0,0,0-2.1-2.41,5.58,5.58,0,0,0-3.06-.8,5,5,0,0,0-3.89,1.77,6.76,6.76,0,0,0,0,8.76,5.31,5.31,0,0,0,4,1.75,5.18,5.18,0,0,0,2.94-.87,5.81,5.81,0,0,0,2.05-2.46Z" transform="translate(-17.79 -16.86)"/><path class="cls-3" d="M222.62,118.17a9.69,9.69,0,0,1,.62-3.48,8.86,8.86,0,0,1,1.82-2.91,9.26,9.26,0,0,1,2.92-2.19,7.82,7.82,0,0,1,3.37-.76,8.89,8.89,0,0,1,3.48.68,9,9,0,0,1,2.9,2,9.4,9.4,0,0,1,1.94,3,9,9,0,0,1,.68,3.43,10.08,10.08,0,0,1-.63,3.51,9.3,9.3,0,0,1-1.78,3,9,9,0,0,1-2.94,2.22,8.09,8.09,0,0,1-3.47.76,8.7,8.7,0,0,1-3.49-.69,8.55,8.55,0,0,1-2.85-2,9.71,9.71,0,0,1-2.57-6.51Zm3.2,0a6.19,6.19,0,0,0,1.64,4.39,5.36,5.36,0,0,0,4.07,1.75,5.23,5.23,0,0,0,4-1.76,6.29,6.29,0,0,0,1.62-4.41,6.18,6.18,0,0,0-1.62-4.4,5.53,5.53,0,0,0-8.07,0A6.26,6.26,0,0,0,225.82,118.14Z" transform="translate(-17.79 -16.86)"/><path class="cls-3" d="M254.2,118.08a9.19,9.19,0,0,0-.89-4.66A3,3,0,0,0,250.5,112a3.24,3.24,0,0,0-2.94,1.46,8.47,8.47,0,0,0-.95,4.52v9h-2.93V109.39h2.74v2a6,6,0,0,1,1.94-1.76,5.12,5.12,0,0,1,2.47-.58,6,6,0,0,1,3.11.73,5.44,5.44,0,0,1,2,2.3,5.46,5.46,0,0,1,2.12-2.28,6.35,6.35,0,0,1,3.21-.75A6,6,0,0,1,266,111a7.44,7.44,0,0,1,1.76,5.18v10.72h-3.11V116.7a5.55,5.55,0,0,0-1-3.49,3.67,3.67,0,0,0-5.57.08,8.39,8.39,0,0,0-.88,4.47v9.17h-3Z" transform="translate(-17.79 -16.86)"/></svg>